<svg xmlns="http://www.w3.org/2000/svg" viewBox="0 0 768 1056" width="768" height="1056" role="img" aria-label="Training curves per pass for three variants"><rect width="768" height="1056" fill="#fff"/>
<text x="16" y="30" font-family='system-ui, -apple-system, Segoe UI, sans-serif' font-size="20" font-weight="700" fill="#1d232b">Training curves, pass by pass (pass 0 = the model as shipped)</text>
<text x="151.0" y="56" font-family='system-ui, -apple-system, Segoe UI, sans-serif' font-size="14" font-weight="700" fill="#1d232b" text-anchor="middle">Decision head only</text>
<text x="385.0" y="56" font-family='system-ui, -apple-system, Segoe UI, sans-serif' font-size="14" font-weight="700" fill="#1d232b" text-anchor="middle">Head + top 8 layers</text>
<text x="619.0" y="56" font-family='system-ui, -apple-system, Segoe UI, sans-serif' font-size="14" font-weight="700" fill="#1d232b" text-anchor="middle">Whole model</text>
<text x="56" y="84" font-family='system-ui, -apple-system, Segoe UI, sans-serif' font-size="13" font-weight="700" fill="#1d232b">Loss (lower is better)</text>
<rect x="60" y="284" width="10" height="10" fill="#8a93a0"/><text x="74" y="293" font-family='system-ui, -apple-system, Segoe UI, sans-serif' font-size="11" fill="#66707d">training</text>
<rect x="133.6" y="284" width="10" height="10" fill="#2a78d6"/><text x="147.6" y="293" font-family='system-ui, -apple-system, Segoe UI, sans-serif' font-size="11" fill="#66707d">validation</text>
<rect x="219.6" y="284" width="10" height="10" fill="#eb6834"/><text x="233.6" y="293" font-family='system-ui, -apple-system, Segoe UI, sans-serif' font-size="11" fill="#66707d">real test</text>
<rect x="56" y="100" width="190" height="150" fill="none" stroke="#e6e3dc"/>
<line x1="56" y1="250.0" x2="246" y2="250.0" stroke="#e6e3dc"/><text x="50" y="254.0" font-family='system-ui, -apple-system, Segoe UI, sans-serif' font-size="10" fill="#66707d" text-anchor="end">0</text>
<line x1="56" y1="175.0" x2="246" y2="175.0" stroke="#e6e3dc"/><text x="50" y="179.0" font-family='system-ui, -apple-system, Segoe UI, sans-serif' font-size="10" fill="#66707d" text-anchor="end">0.53</text>
<line x1="56" y1="100.0" x2="246" y2="100.0" stroke="#e6e3dc"/><text x="50" y="104.0" font-family='system-ui, -apple-system, Segoe UI, sans-serif' font-size="10" fill="#66707d" text-anchor="end">1.1</text>
<text x="56.0" y="264" font-family='system-ui, -apple-system, Segoe UI, sans-serif' font-size="10" fill="#66707d" text-anchor="middle">0</text>
<text x="103.5" y="264" font-family='system-ui, -apple-system, Segoe UI, sans-serif' font-size="10" fill="#66707d" text-anchor="middle">1</text>
<text x="151.0" y="264" font-family='system-ui, -apple-system, Segoe UI, sans-serif' font-size="10" fill="#66707d" text-anchor="middle">2</text>
<text x="198.5" y="264" font-family='system-ui, -apple-system, Segoe UI, sans-serif' font-size="10" fill="#66707d" text-anchor="middle">3</text>
<text x="246.0" y="264" font-family='system-ui, -apple-system, Segoe UI, sans-serif' font-size="10" fill="#66707d" text-anchor="middle">4</text>
<polyline points="103.5,161.5 151.0,166.5 198.5,163.6 246.0,166.3" fill="none" stroke="#8a93a0" stroke-width="2"/>
<circle cx="103.5" cy="161.5" r="3" fill="#8a93a0"/>
<circle cx="151.0" cy="166.5" r="3" fill="#8a93a0"/>
<circle cx="198.5" cy="163.6" r="3" fill="#8a93a0"/>
<circle cx="246.0" cy="166.3" r="3" fill="#8a93a0"/>
<polyline points="56.0,176.2 103.5,181.8 151.0,186.8 198.5,186.5 246.0,187.0" fill="none" stroke="#2a78d6" stroke-width="2"/>
<circle cx="56.0" cy="176.2" r="3" fill="#2a78d6"/>
<circle cx="103.5" cy="181.8" r="3" fill="#2a78d6"/>
<circle cx="151.0" cy="186.8" r="3" fill="#2a78d6"/>
<circle cx="198.5" cy="186.5" r="3" fill="#2a78d6"/>
<circle cx="246.0" cy="187.0" r="3" fill="#2a78d6"/>
<polyline points="56.0,177.8 103.5,183.7 151.0,188.8 198.5,188.7 246.0,189.2" fill="none" stroke="#eb6834" stroke-width="2"/>
<circle cx="56.0" cy="177.8" r="3" fill="#eb6834"/>
<circle cx="103.5" cy="183.7" r="3" fill="#eb6834"/>
<circle cx="151.0" cy="188.8" r="3" fill="#eb6834"/>
<circle cx="198.5" cy="188.7" r="3" fill="#eb6834"/>
<circle cx="246.0" cy="189.2" r="3" fill="#eb6834"/>
<text x="251.0" y="170.3" font-family='system-ui, -apple-system, Segoe UI, sans-serif' font-size="10" fill="#8a93a0">0.59</text>
<text x="251.0" y="191.0" font-family='system-ui, -apple-system, Segoe UI, sans-serif' font-size="10" fill="#2a78d6">0.44</text>
<text x="251.0" y="202.0" font-family='system-ui, -apple-system, Segoe UI, sans-serif' font-size="10" fill="#eb6834">0.43</text>
<rect x="290" y="100" width="190" height="150" fill="none" stroke="#e6e3dc"/>
<line x1="290" y1="250.0" x2="480" y2="250.0" stroke="#e6e3dc"/><text x="284" y="254.0" font-family='system-ui, -apple-system, Segoe UI, sans-serif' font-size="10" fill="#66707d" text-anchor="end">0</text>
<line x1="290" y1="175.0" x2="480" y2="175.0" stroke="#e6e3dc"/><text x="284" y="179.0" font-family='system-ui, -apple-system, Segoe UI, sans-serif' font-size="10" fill="#66707d" text-anchor="end">0.53</text>
<line x1="290" y1="100.0" x2="480" y2="100.0" stroke="#e6e3dc"/><text x="284" y="104.0" font-family='system-ui, -apple-system, Segoe UI, sans-serif' font-size="10" fill="#66707d" text-anchor="end">1.1</text>
<text x="290.0" y="264" font-family='system-ui, -apple-system, Segoe UI, sans-serif' font-size="10" fill="#66707d" text-anchor="middle">0</text>
<text x="353.3" y="264" font-family='system-ui, -apple-system, Segoe UI, sans-serif' font-size="10" fill="#66707d" text-anchor="middle">1</text>
<text x="416.7" y="264" font-family='system-ui, -apple-system, Segoe UI, sans-serif' font-size="10" fill="#66707d" text-anchor="middle">2</text>
<text x="480.0" y="264" font-family='system-ui, -apple-system, Segoe UI, sans-serif' font-size="10" fill="#66707d" text-anchor="middle">3</text>
<polyline points="353.3,162.6 416.7,129.0 480.0,113.6" fill="none" stroke="#8a93a0" stroke-width="2"/>
<circle cx="353.3" cy="162.6" r="3" fill="#8a93a0"/>
<circle cx="416.7" cy="129.0" r="3" fill="#8a93a0"/>
<circle cx="480.0" cy="113.6" r="3" fill="#8a93a0"/>
<polyline points="290.0,176.2 353.3,221.0 416.7,222.9 480.0,224.0" fill="none" stroke="#2a78d6" stroke-width="2"/>
<circle cx="290.0" cy="176.2" r="3" fill="#2a78d6"/>
<circle cx="353.3" cy="221.0" r="3" fill="#2a78d6"/>
<circle cx="416.7" cy="222.9" r="3" fill="#2a78d6"/>
<circle cx="480.0" cy="224.0" r="3" fill="#2a78d6"/>
<polyline points="290.0,177.8 353.3,220.7 416.7,222.3 480.0,222.9" fill="none" stroke="#eb6834" stroke-width="2"/>
<circle cx="290.0" cy="177.8" r="3" fill="#eb6834"/>
<circle cx="353.3" cy="220.7" r="3" fill="#eb6834"/>
<circle cx="416.7" cy="222.3" r="3" fill="#eb6834"/>
<circle cx="480.0" cy="222.9" r="3" fill="#eb6834"/>
<text x="485.0" y="117.6" font-family='system-ui, -apple-system, Segoe UI, sans-serif' font-size="10" fill="#8a93a0">0.96</text>
<text x="485.0" y="226.9" font-family='system-ui, -apple-system, Segoe UI, sans-serif' font-size="10" fill="#eb6834">0.19</text>
<text x="485.0" y="237.9" font-family='system-ui, -apple-system, Segoe UI, sans-serif' font-size="10" fill="#2a78d6">0.18</text>
<rect x="524" y="100" width="190" height="150" fill="none" stroke="#e6e3dc"/>
<line x1="524" y1="250.0" x2="714" y2="250.0" stroke="#e6e3dc"/><text x="518" y="254.0" font-family='system-ui, -apple-system, Segoe UI, sans-serif' font-size="10" fill="#66707d" text-anchor="end">0</text>
<line x1="524" y1="175.0" x2="714" y2="175.0" stroke="#e6e3dc"/><text x="518" y="179.0" font-family='system-ui, -apple-system, Segoe UI, sans-serif' font-size="10" fill="#66707d" text-anchor="end">0.53</text>
<line x1="524" y1="100.0" x2="714" y2="100.0" stroke="#e6e3dc"/><text x="518" y="104.0" font-family='system-ui, -apple-system, Segoe UI, sans-serif' font-size="10" fill="#66707d" text-anchor="end">1.1</text>
<text x="524.0" y="264" font-family='system-ui, -apple-system, Segoe UI, sans-serif' font-size="10" fill="#66707d" text-anchor="middle">0</text>
<text x="587.3" y="264" font-family='system-ui, -apple-system, Segoe UI, sans-serif' font-size="10" fill="#66707d" text-anchor="middle">1</text>
<text x="650.7" y="264" font-family='system-ui, -apple-system, Segoe UI, sans-serif' font-size="10" fill="#66707d" text-anchor="middle">2</text>
<text x="714.0" y="264" font-family='system-ui, -apple-system, Segoe UI, sans-serif' font-size="10" fill="#66707d" text-anchor="middle">3</text>
<polyline points="587.3,123.7 650.7,176.2 714.0,226.5" fill="none" stroke="#8a93a0" stroke-width="2"/>
<circle cx="587.3" cy="123.7" r="3" fill="#8a93a0"/>
<circle cx="650.7" cy="176.2" r="3" fill="#8a93a0"/>
<circle cx="714.0" cy="226.5" r="3" fill="#8a93a0"/>
<polyline points="524.0,176.2 587.3,224.7 650.7,226.7 714.0,234.3" fill="none" stroke="#2a78d6" stroke-width="2"/>
<circle cx="524.0" cy="176.2" r="3" fill="#2a78d6"/>
<circle cx="587.3" cy="224.7" r="3" fill="#2a78d6"/>
<circle cx="650.7" cy="226.7" r="3" fill="#2a78d6"/>
<circle cx="714.0" cy="234.3" r="3" fill="#2a78d6"/>
<polyline points="524.0,177.8 587.3,215.0 650.7,217.3 714.0,229.6" fill="none" stroke="#eb6834" stroke-width="2"/>
<circle cx="524.0" cy="177.8" r="3" fill="#eb6834"/>
<circle cx="587.3" cy="215.0" r="3" fill="#eb6834"/>
<circle cx="650.7" cy="217.3" r="3" fill="#eb6834"/>
<circle cx="714.0" cy="229.6" r="3" fill="#eb6834"/>
<text x="719.0" y="230.5" font-family='system-ui, -apple-system, Segoe UI, sans-serif' font-size="10" fill="#8a93a0">0.17</text>
<text x="719.0" y="241.5" font-family='system-ui, -apple-system, Segoe UI, sans-serif' font-size="10" fill="#eb6834">0.14</text>
<text x="719.0" y="252.5" font-family='system-ui, -apple-system, Segoe UI, sans-serif' font-size="10" fill="#2a78d6">0.11</text>
<text x="56" y="318" font-family='system-ui, -apple-system, Segoe UI, sans-serif' font-size="13" font-weight="700" fill="#1d232b">Ranking quality, AUROC (1.0 = perfect, 0.5 = coin flip)</text>
<rect x="60" y="518" width="10" height="10" fill="#2a78d6"/><text x="74" y="527" font-family='system-ui, -apple-system, Segoe UI, sans-serif' font-size="11" fill="#66707d">validation</text>
<rect x="146.0" y="518" width="10" height="10" fill="#1baf7a"/><text x="160.0" y="527" font-family='system-ui, -apple-system, Segoe UI, sans-serif' font-size="11" fill="#66707d">short-command set</text>
<rect x="275.4" y="518" width="10" height="10" fill="#eb6834"/><text x="289.4" y="527" font-family='system-ui, -apple-system, Segoe UI, sans-serif' font-size="11" fill="#66707d">real test</text>
<rect x="56" y="334" width="190" height="150" fill="none" stroke="#e6e3dc"/>
<line x1="56" y1="484.0" x2="246" y2="484.0" stroke="#e6e3dc"/><text x="50" y="488.0" font-family='system-ui, -apple-system, Segoe UI, sans-serif' font-size="10" fill="#66707d" text-anchor="end">0.4</text>
<line x1="56" y1="409.0" x2="246" y2="409.0" stroke="#e6e3dc"/><text x="50" y="413.0" font-family='system-ui, -apple-system, Segoe UI, sans-serif' font-size="10" fill="#66707d" text-anchor="end">0.7</text>
<line x1="56" y1="334.0" x2="246" y2="334.0" stroke="#e6e3dc"/><text x="50" y="338.0" font-family='system-ui, -apple-system, Segoe UI, sans-serif' font-size="10" fill="#66707d" text-anchor="end">1</text>
<text x="56.0" y="498" font-family='system-ui, -apple-system, Segoe UI, sans-serif' font-size="10" fill="#66707d" text-anchor="middle">0</text>
<text x="103.5" y="498" font-family='system-ui, -apple-system, Segoe UI, sans-serif' font-size="10" fill="#66707d" text-anchor="middle">1</text>
<text x="151.0" y="498" font-family='system-ui, -apple-system, Segoe UI, sans-serif' font-size="10" fill="#66707d" text-anchor="middle">2</text>
<text x="198.5" y="498" font-family='system-ui, -apple-system, Segoe UI, sans-serif' font-size="10" fill="#66707d" text-anchor="middle">3</text>
<text x="246.0" y="498" font-family='system-ui, -apple-system, Segoe UI, sans-serif' font-size="10" fill="#66707d" text-anchor="middle">4</text>
<polyline points="56.0,403.5 103.5,402.9 151.0,402.7 198.5,402.1 246.0,401.9" fill="none" stroke="#2a78d6" stroke-width="2"/>
<circle cx="56.0" cy="403.5" r="3" fill="#2a78d6"/>
<circle cx="103.5" cy="402.9" r="3" fill="#2a78d6"/>
<circle cx="151.0" cy="402.7" r="3" fill="#2a78d6"/>
<circle cx="198.5" cy="402.1" r="3" fill="#2a78d6"/>
<circle cx="246.0" cy="401.9" r="3" fill="#2a78d6"/>
<polyline points="56.0,352.1 103.5,352.1 151.0,352.1 198.5,352.1 246.0,352.1" fill="none" stroke="#1baf7a" stroke-width="2"/>
<circle cx="56.0" cy="352.1" r="3" fill="#1baf7a"/>
<circle cx="103.5" cy="352.1" r="3" fill="#1baf7a"/>
<circle cx="151.0" cy="352.1" r="3" fill="#1baf7a"/>
<circle cx="198.5" cy="352.1" r="3" fill="#1baf7a"/>
<circle cx="246.0" cy="352.1" r="3" fill="#1baf7a"/>
<polyline points="56.0,416.5 103.5,415.4 151.0,414.7 198.5,414.2 246.0,413.8" fill="none" stroke="#eb6834" stroke-width="2"/>
<circle cx="56.0" cy="416.5" r="3" fill="#eb6834"/>
<circle cx="103.5" cy="415.4" r="3" fill="#eb6834"/>
<circle cx="151.0" cy="414.7" r="3" fill="#eb6834"/>
<circle cx="198.5" cy="414.2" r="3" fill="#eb6834"/>
<circle cx="246.0" cy="413.8" r="3" fill="#eb6834"/>
<text x="251.0" y="356.1" font-family='system-ui, -apple-system, Segoe UI, sans-serif' font-size="10" fill="#1baf7a">0.93</text>
<text x="251.0" y="405.9" font-family='system-ui, -apple-system, Segoe UI, sans-serif' font-size="10" fill="#2a78d6">0.73</text>
<text x="251.0" y="417.8" font-family='system-ui, -apple-system, Segoe UI, sans-serif' font-size="10" fill="#eb6834">0.68</text>
<rect x="290" y="334" width="190" height="150" fill="none" stroke="#e6e3dc"/>
<line x1="290" y1="484.0" x2="480" y2="484.0" stroke="#e6e3dc"/><text x="284" y="488.0" font-family='system-ui, -apple-system, Segoe UI, sans-serif' font-size="10" fill="#66707d" text-anchor="end">0.4</text>
<line x1="290" y1="409.0" x2="480" y2="409.0" stroke="#e6e3dc"/><text x="284" y="413.0" font-family='system-ui, -apple-system, Segoe UI, sans-serif' font-size="10" fill="#66707d" text-anchor="end">0.7</text>
<line x1="290" y1="334.0" x2="480" y2="334.0" stroke="#e6e3dc"/><text x="284" y="338.0" font-family='system-ui, -apple-system, Segoe UI, sans-serif' font-size="10" fill="#66707d" text-anchor="end">1</text>
<text x="290.0" y="498" font-family='system-ui, -apple-system, Segoe UI, sans-serif' font-size="10" fill="#66707d" text-anchor="middle">0</text>
<text x="353.3" y="498" font-family='system-ui, -apple-system, Segoe UI, sans-serif' font-size="10" fill="#66707d" text-anchor="middle">1</text>
<text x="416.7" y="498" font-family='system-ui, -apple-system, Segoe UI, sans-serif' font-size="10" fill="#66707d" text-anchor="middle">2</text>
<text x="480.0" y="498" font-family='system-ui, -apple-system, Segoe UI, sans-serif' font-size="10" fill="#66707d" text-anchor="middle">3</text>
<polyline points="290.0,403.5 353.3,392.2 416.7,378.7 480.0,373.9" fill="none" stroke="#2a78d6" stroke-width="2"/>
<circle cx="290.0" cy="403.5" r="3" fill="#2a78d6"/>
<circle cx="353.3" cy="392.2" r="3" fill="#2a78d6"/>
<circle cx="416.7" cy="378.7" r="3" fill="#2a78d6"/>
<circle cx="480.0" cy="373.9" r="3" fill="#2a78d6"/>
<polyline points="290.0,352.1 353.3,352.8 416.7,350.9 480.0,350.2" fill="none" stroke="#1baf7a" stroke-width="2"/>
<circle cx="290.0" cy="352.1" r="3" fill="#1baf7a"/>
<circle cx="353.3" cy="352.8" r="3" fill="#1baf7a"/>
<circle cx="416.7" cy="350.9" r="3" fill="#1baf7a"/>
<circle cx="480.0" cy="350.2" r="3" fill="#1baf7a"/>
<polyline points="290.0,416.5 353.3,409.3 416.7,403.5 480.0,401.0" fill="none" stroke="#eb6834" stroke-width="2"/>
<circle cx="290.0" cy="416.5" r="3" fill="#eb6834"/>
<circle cx="353.3" cy="409.3" r="3" fill="#eb6834"/>
<circle cx="416.7" cy="403.5" r="3" fill="#eb6834"/>
<circle cx="480.0" cy="401.0" r="3" fill="#eb6834"/>
<text x="485.0" y="354.2" font-family='system-ui, -apple-system, Segoe UI, sans-serif' font-size="10" fill="#1baf7a">0.94</text>
<text x="485.0" y="377.9" font-family='system-ui, -apple-system, Segoe UI, sans-serif' font-size="10" fill="#2a78d6">0.84</text>
<text x="485.0" y="405.0" font-family='system-ui, -apple-system, Segoe UI, sans-serif' font-size="10" fill="#eb6834">0.73</text>
<rect x="524" y="334" width="190" height="150" fill="none" stroke="#e6e3dc"/>
<line x1="524" y1="484.0" x2="714" y2="484.0" stroke="#e6e3dc"/><text x="518" y="488.0" font-family='system-ui, -apple-system, Segoe UI, sans-serif' font-size="10" fill="#66707d" text-anchor="end">0.4</text>
<line x1="524" y1="409.0" x2="714" y2="409.0" stroke="#e6e3dc"/><text x="518" y="413.0" font-family='system-ui, -apple-system, Segoe UI, sans-serif' font-size="10" fill="#66707d" text-anchor="end">0.7</text>
<line x1="524" y1="334.0" x2="714" y2="334.0" stroke="#e6e3dc"/><text x="518" y="338.0" font-family='system-ui, -apple-system, Segoe UI, sans-serif' font-size="10" fill="#66707d" text-anchor="end">1</text>
<text x="524.0" y="498" font-family='system-ui, -apple-system, Segoe UI, sans-serif' font-size="10" fill="#66707d" text-anchor="middle">0</text>
<text x="587.3" y="498" font-family='system-ui, -apple-system, Segoe UI, sans-serif' font-size="10" fill="#66707d" text-anchor="middle">1</text>
<text x="650.7" y="498" font-family='system-ui, -apple-system, Segoe UI, sans-serif' font-size="10" fill="#66707d" text-anchor="middle">2</text>
<text x="714.0" y="498" font-family='system-ui, -apple-system, Segoe UI, sans-serif' font-size="10" fill="#66707d" text-anchor="middle">3</text>
<polyline points="524.0,403.5 587.3,349.3 650.7,338.1 714.0,335.7" fill="none" stroke="#2a78d6" stroke-width="2"/>
<circle cx="524.0" cy="403.5" r="3" fill="#2a78d6"/>
<circle cx="587.3" cy="349.3" r="3" fill="#2a78d6"/>
<circle cx="650.7" cy="338.1" r="3" fill="#2a78d6"/>
<circle cx="714.0" cy="335.7" r="3" fill="#2a78d6"/>
<polyline points="524.0,352.1 587.3,392.8 650.7,379.6 714.0,364.6" fill="none" stroke="#1baf7a" stroke-width="2"/>
<circle cx="524.0" cy="352.1" r="3" fill="#1baf7a"/>
<circle cx="587.3" cy="392.8" r="3" fill="#1baf7a"/>
<circle cx="650.7" cy="379.6" r="3" fill="#1baf7a"/>
<circle cx="714.0" cy="364.6" r="3" fill="#1baf7a"/>
<polyline points="524.0,416.5 587.3,376.1 650.7,363.3 714.0,348.4" fill="none" stroke="#eb6834" stroke-width="2"/>
<circle cx="524.0" cy="416.5" r="3" fill="#eb6834"/>
<circle cx="587.3" cy="376.1" r="3" fill="#eb6834"/>
<circle cx="650.7" cy="363.3" r="3" fill="#eb6834"/>
<circle cx="714.0" cy="348.4" r="3" fill="#eb6834"/>
<text x="719.0" y="339.7" font-family='system-ui, -apple-system, Segoe UI, sans-serif' font-size="10" fill="#2a78d6">0.99</text>
<text x="719.0" y="352.4" font-family='system-ui, -apple-system, Segoe UI, sans-serif' font-size="10" fill="#eb6834">0.94</text>
<text x="719.0" y="368.6" font-family='system-ui, -apple-system, Segoe UI, sans-serif' font-size="10" fill="#1baf7a">0.88</text>
<text x="56" y="552" font-family='system-ui, -apple-system, Segoe UI, sans-serif' font-size="13" font-weight="700" fill="#1d232b">Real test at the 50-coin cut-off: destructive caught, harmless flagged</text>
<rect x="60" y="752" width="10" height="10" fill="#eb6834"/><text x="74" y="761" font-family='system-ui, -apple-system, Segoe UI, sans-serif' font-size="11" fill="#66707d">destructive caught (of 19)</text>
<rect x="245.20000000000002" y="752" width="10" height="10" fill="#2a78d6"/><text x="259.20000000000005" y="761" font-family='system-ui, -apple-system, Segoe UI, sans-serif' font-size="11" fill="#66707d">harmless flagged</text>
<rect x="56" y="568" width="190" height="150" fill="none" stroke="#e6e3dc"/>
<line x1="56" y1="718.0" x2="246" y2="718.0" stroke="#e6e3dc"/><text x="50" y="722.0" font-family='system-ui, -apple-system, Segoe UI, sans-serif' font-size="10" fill="#66707d" text-anchor="end">0</text>
<line x1="56" y1="643.0" x2="246" y2="643.0" stroke="#e6e3dc"/><text x="50" y="647.0" font-family='system-ui, -apple-system, Segoe UI, sans-serif' font-size="10" fill="#66707d" text-anchor="end">0.5</text>
<line x1="56" y1="568.0" x2="246" y2="568.0" stroke="#e6e3dc"/><text x="50" y="572.0" font-family='system-ui, -apple-system, Segoe UI, sans-serif' font-size="10" fill="#66707d" text-anchor="end">1</text>
<text x="56.0" y="732" font-family='system-ui, -apple-system, Segoe UI, sans-serif' font-size="10" fill="#66707d" text-anchor="middle">0</text>
<text x="103.5" y="732" font-family='system-ui, -apple-system, Segoe UI, sans-serif' font-size="10" fill="#66707d" text-anchor="middle">1</text>
<text x="151.0" y="732" font-family='system-ui, -apple-system, Segoe UI, sans-serif' font-size="10" fill="#66707d" text-anchor="middle">2</text>
<text x="198.5" y="732" font-family='system-ui, -apple-system, Segoe UI, sans-serif' font-size="10" fill="#66707d" text-anchor="middle">3</text>
<text x="246.0" y="732" font-family='system-ui, -apple-system, Segoe UI, sans-serif' font-size="10" fill="#66707d" text-anchor="middle">4</text>
<polyline points="56.0,662.7 103.5,662.7 151.0,662.7 198.5,662.7 246.0,662.7" fill="none" stroke="#eb6834" stroke-width="2"/>
<circle cx="56.0" cy="662.7" r="3" fill="#eb6834"/>
<circle cx="103.5" cy="662.7" r="3" fill="#eb6834"/>
<circle cx="151.0" cy="662.7" r="3" fill="#eb6834"/>
<circle cx="198.5" cy="662.7" r="3" fill="#eb6834"/>
<circle cx="246.0" cy="662.7" r="3" fill="#eb6834"/>
<polyline points="56.0,695.2 103.5,695.2 151.0,695.2 198.5,695.2 246.0,695.2" fill="none" stroke="#2a78d6" stroke-width="2"/>
<circle cx="56.0" cy="695.2" r="3" fill="#2a78d6"/>
<circle cx="103.5" cy="695.2" r="3" fill="#2a78d6"/>
<circle cx="151.0" cy="695.2" r="3" fill="#2a78d6"/>
<circle cx="198.5" cy="695.2" r="3" fill="#2a78d6"/>
<circle cx="246.0" cy="695.2" r="3" fill="#2a78d6"/>
<text x="251.0" y="666.7" font-family='system-ui, -apple-system, Segoe UI, sans-serif' font-size="10" fill="#eb6834">0.37</text>
<text x="251.0" y="699.2" font-family='system-ui, -apple-system, Segoe UI, sans-serif' font-size="10" fill="#2a78d6">0.15</text>
<rect x="290" y="568" width="190" height="150" fill="none" stroke="#e6e3dc"/>
<line x1="290" y1="718.0" x2="480" y2="718.0" stroke="#e6e3dc"/><text x="284" y="722.0" font-family='system-ui, -apple-system, Segoe UI, sans-serif' font-size="10" fill="#66707d" text-anchor="end">0</text>
<line x1="290" y1="643.0" x2="480" y2="643.0" stroke="#e6e3dc"/><text x="284" y="647.0" font-family='system-ui, -apple-system, Segoe UI, sans-serif' font-size="10" fill="#66707d" text-anchor="end">0.5</text>
<line x1="290" y1="568.0" x2="480" y2="568.0" stroke="#e6e3dc"/><text x="284" y="572.0" font-family='system-ui, -apple-system, Segoe UI, sans-serif' font-size="10" fill="#66707d" text-anchor="end">1</text>
<text x="290.0" y="732" font-family='system-ui, -apple-system, Segoe UI, sans-serif' font-size="10" fill="#66707d" text-anchor="middle">0</text>
<text x="353.3" y="732" font-family='system-ui, -apple-system, Segoe UI, sans-serif' font-size="10" fill="#66707d" text-anchor="middle">1</text>
<text x="416.7" y="732" font-family='system-ui, -apple-system, Segoe UI, sans-serif' font-size="10" fill="#66707d" text-anchor="middle">2</text>
<text x="480.0" y="732" font-family='system-ui, -apple-system, Segoe UI, sans-serif' font-size="10" fill="#66707d" text-anchor="middle">3</text>
<polyline points="290.0,662.7 353.3,710.1 416.7,710.1 480.0,710.1" fill="none" stroke="#eb6834" stroke-width="2"/>
<circle cx="290.0" cy="662.7" r="3" fill="#eb6834"/>
<circle cx="353.3" cy="710.1" r="3" fill="#eb6834"/>
<circle cx="416.7" cy="710.1" r="3" fill="#eb6834"/>
<circle cx="480.0" cy="710.1" r="3" fill="#eb6834"/>
<polyline points="290.0,695.2 353.3,716.0 416.7,716.8 480.0,716.8" fill="none" stroke="#2a78d6" stroke-width="2"/>
<circle cx="290.0" cy="695.2" r="3" fill="#2a78d6"/>
<circle cx="353.3" cy="716.0" r="3" fill="#2a78d6"/>
<circle cx="416.7" cy="716.8" r="3" fill="#2a78d6"/>
<circle cx="480.0" cy="716.8" r="3" fill="#2a78d6"/>
<text x="485.0" y="714.1" font-family='system-ui, -apple-system, Segoe UI, sans-serif' font-size="10" fill="#eb6834">0.05</text>
<text x="485.0" y="725.1" font-family='system-ui, -apple-system, Segoe UI, sans-serif' font-size="10" fill="#2a78d6">0.01</text>
<rect x="524" y="568" width="190" height="150" fill="none" stroke="#e6e3dc"/>
<line x1="524" y1="718.0" x2="714" y2="718.0" stroke="#e6e3dc"/><text x="518" y="722.0" font-family='system-ui, -apple-system, Segoe UI, sans-serif' font-size="10" fill="#66707d" text-anchor="end">0</text>
<line x1="524" y1="643.0" x2="714" y2="643.0" stroke="#e6e3dc"/><text x="518" y="647.0" font-family='system-ui, -apple-system, Segoe UI, sans-serif' font-size="10" fill="#66707d" text-anchor="end">0.5</text>
<line x1="524" y1="568.0" x2="714" y2="568.0" stroke="#e6e3dc"/><text x="518" y="572.0" font-family='system-ui, -apple-system, Segoe UI, sans-serif' font-size="10" fill="#66707d" text-anchor="end">1</text>
<text x="524.0" y="732" font-family='system-ui, -apple-system, Segoe UI, sans-serif' font-size="10" fill="#66707d" text-anchor="middle">0</text>
<text x="587.3" y="732" font-family='system-ui, -apple-system, Segoe UI, sans-serif' font-size="10" fill="#66707d" text-anchor="middle">1</text>
<text x="650.7" y="732" font-family='system-ui, -apple-system, Segoe UI, sans-serif' font-size="10" fill="#66707d" text-anchor="middle">2</text>
<text x="714.0" y="732" font-family='system-ui, -apple-system, Segoe UI, sans-serif' font-size="10" fill="#66707d" text-anchor="middle">3</text>
<polyline points="524.0,662.7 587.3,718.0 650.7,686.4 714.0,646.9" fill="none" stroke="#eb6834" stroke-width="2"/>
<circle cx="524.0" cy="662.7" r="3" fill="#eb6834"/>
<circle cx="587.3" cy="718.0" r="3" fill="#eb6834"/>
<circle cx="650.7" cy="686.4" r="3" fill="#eb6834"/>
<circle cx="714.0" cy="646.9" r="3" fill="#eb6834"/>
<polyline points="524.0,695.2 587.3,718.0 650.7,718.0 714.0,717.2" fill="none" stroke="#2a78d6" stroke-width="2"/>
<circle cx="524.0" cy="695.2" r="3" fill="#2a78d6"/>
<circle cx="587.3" cy="718.0" r="3" fill="#2a78d6"/>
<circle cx="650.7" cy="718.0" r="3" fill="#2a78d6"/>
<circle cx="714.0" cy="717.2" r="3" fill="#2a78d6"/>
<text x="719.0" y="650.9" font-family='system-ui, -apple-system, Segoe UI, sans-serif' font-size="10" fill="#eb6834">0.47</text>
<text x="719.0" y="721.2" font-family='system-ui, -apple-system, Segoe UI, sans-serif' font-size="10" fill="#2a78d6">0.01</text>
<text x="56" y="786" font-family='system-ui, -apple-system, Segoe UI, sans-serif' font-size="13" font-weight="700" fill="#1d232b">Short-command set at the 50-coin cut-off</text>
<rect x="60" y="986" width="10" height="10" fill="#eb6834"/><text x="74" y="995" font-family='system-ui, -apple-system, Segoe UI, sans-serif' font-size="11" fill="#66707d">destructive caught (of 20)</text>
<rect x="245.20000000000002" y="986" width="10" height="10" fill="#2a78d6"/><text x="259.20000000000005" y="995" font-family='system-ui, -apple-system, Segoe UI, sans-serif' font-size="11" fill="#66707d">harmless flagged</text>
<rect x="56" y="802" width="190" height="150" fill="none" stroke="#e6e3dc"/>
<line x1="56" y1="952.0" x2="246" y2="952.0" stroke="#e6e3dc"/><text x="50" y="956.0" font-family='system-ui, -apple-system, Segoe UI, sans-serif' font-size="10" fill="#66707d" text-anchor="end">0</text>
<line x1="56" y1="877.0" x2="246" y2="877.0" stroke="#e6e3dc"/><text x="50" y="881.0" font-family='system-ui, -apple-system, Segoe UI, sans-serif' font-size="10" fill="#66707d" text-anchor="end">0.5</text>
<line x1="56" y1="802.0" x2="246" y2="802.0" stroke="#e6e3dc"/><text x="50" y="806.0" font-family='system-ui, -apple-system, Segoe UI, sans-serif' font-size="10" fill="#66707d" text-anchor="end">1</text>
<text x="56.0" y="966" font-family='system-ui, -apple-system, Segoe UI, sans-serif' font-size="10" fill="#66707d" text-anchor="middle">0</text>
<text x="103.5" y="966" font-family='system-ui, -apple-system, Segoe UI, sans-serif' font-size="10" fill="#66707d" text-anchor="middle">1</text>
<text x="151.0" y="966" font-family='system-ui, -apple-system, Segoe UI, sans-serif' font-size="10" fill="#66707d" text-anchor="middle">2</text>
<text x="198.5" y="966" font-family='system-ui, -apple-system, Segoe UI, sans-serif' font-size="10" fill="#66707d" text-anchor="middle">3</text>
<text x="246.0" y="966" font-family='system-ui, -apple-system, Segoe UI, sans-serif' font-size="10" fill="#66707d" text-anchor="middle">4</text>
<polyline points="56.0,877.0 103.5,884.5 151.0,884.5 198.5,884.5 246.0,884.5" fill="none" stroke="#eb6834" stroke-width="2"/>
<circle cx="56.0" cy="877.0" r="3" fill="#eb6834"/>
<circle cx="103.5" cy="884.5" r="3" fill="#eb6834"/>
<circle cx="151.0" cy="884.5" r="3" fill="#eb6834"/>
<circle cx="198.5" cy="884.5" r="3" fill="#eb6834"/>
<circle cx="246.0" cy="884.5" r="3" fill="#eb6834"/>
<polyline points="56.0,944.5 103.5,944.5 151.0,944.5 198.5,944.5 246.0,944.5" fill="none" stroke="#2a78d6" stroke-width="2"/>
<circle cx="56.0" cy="944.5" r="3" fill="#2a78d6"/>
<circle cx="103.5" cy="944.5" r="3" fill="#2a78d6"/>
<circle cx="151.0" cy="944.5" r="3" fill="#2a78d6"/>
<circle cx="198.5" cy="944.5" r="3" fill="#2a78d6"/>
<circle cx="246.0" cy="944.5" r="3" fill="#2a78d6"/>
<text x="251.0" y="888.5" font-family='system-ui, -apple-system, Segoe UI, sans-serif' font-size="10" fill="#eb6834">0.45</text>
<text x="251.0" y="948.5" font-family='system-ui, -apple-system, Segoe UI, sans-serif' font-size="10" fill="#2a78d6">0.05</text>
<rect x="290" y="802" width="190" height="150" fill="none" stroke="#e6e3dc"/>
<line x1="290" y1="952.0" x2="480" y2="952.0" stroke="#e6e3dc"/><text x="284" y="956.0" font-family='system-ui, -apple-system, Segoe UI, sans-serif' font-size="10" fill="#66707d" text-anchor="end">0</text>
<line x1="290" y1="877.0" x2="480" y2="877.0" stroke="#e6e3dc"/><text x="284" y="881.0" font-family='system-ui, -apple-system, Segoe UI, sans-serif' font-size="10" fill="#66707d" text-anchor="end">0.5</text>
<line x1="290" y1="802.0" x2="480" y2="802.0" stroke="#e6e3dc"/><text x="284" y="806.0" font-family='system-ui, -apple-system, Segoe UI, sans-serif' font-size="10" fill="#66707d" text-anchor="end">1</text>
<text x="290.0" y="966" font-family='system-ui, -apple-system, Segoe UI, sans-serif' font-size="10" fill="#66707d" text-anchor="middle">0</text>
<text x="353.3" y="966" font-family='system-ui, -apple-system, Segoe UI, sans-serif' font-size="10" fill="#66707d" text-anchor="middle">1</text>
<text x="416.7" y="966" font-family='system-ui, -apple-system, Segoe UI, sans-serif' font-size="10" fill="#66707d" text-anchor="middle">2</text>
<text x="480.0" y="966" font-family='system-ui, -apple-system, Segoe UI, sans-serif' font-size="10" fill="#66707d" text-anchor="middle">3</text>
<polyline points="290.0,877.0 353.3,937.0 416.7,907.0 480.0,899.5" fill="none" stroke="#eb6834" stroke-width="2"/>
<circle cx="290.0" cy="877.0" r="3" fill="#eb6834"/>
<circle cx="353.3" cy="937.0" r="3" fill="#eb6834"/>
<circle cx="416.7" cy="907.0" r="3" fill="#eb6834"/>
<circle cx="480.0" cy="899.5" r="3" fill="#eb6834"/>
<polyline points="290.0,944.5 353.3,952.0 416.7,952.0 480.0,952.0" fill="none" stroke="#2a78d6" stroke-width="2"/>
<circle cx="290.0" cy="944.5" r="3" fill="#2a78d6"/>
<circle cx="353.3" cy="952.0" r="3" fill="#2a78d6"/>
<circle cx="416.7" cy="952.0" r="3" fill="#2a78d6"/>
<circle cx="480.0" cy="952.0" r="3" fill="#2a78d6"/>
<text x="485.0" y="903.5" font-family='system-ui, -apple-system, Segoe UI, sans-serif' font-size="10" fill="#eb6834">0.35</text>
<text x="485.0" y="956.0" font-family='system-ui, -apple-system, Segoe UI, sans-serif' font-size="10" fill="#2a78d6">0.00</text>
<rect x="524" y="802" width="190" height="150" fill="none" stroke="#e6e3dc"/>
<line x1="524" y1="952.0" x2="714" y2="952.0" stroke="#e6e3dc"/><text x="518" y="956.0" font-family='system-ui, -apple-system, Segoe UI, sans-serif' font-size="10" fill="#66707d" text-anchor="end">0</text>
<line x1="524" y1="877.0" x2="714" y2="877.0" stroke="#e6e3dc"/><text x="518" y="881.0" font-family='system-ui, -apple-system, Segoe UI, sans-serif' font-size="10" fill="#66707d" text-anchor="end">0.5</text>
<line x1="524" y1="802.0" x2="714" y2="802.0" stroke="#e6e3dc"/><text x="518" y="806.0" font-family='system-ui, -apple-system, Segoe UI, sans-serif' font-size="10" fill="#66707d" text-anchor="end">1</text>
<text x="524.0" y="966" font-family='system-ui, -apple-system, Segoe UI, sans-serif' font-size="10" fill="#66707d" text-anchor="middle">0</text>
<text x="587.3" y="966" font-family='system-ui, -apple-system, Segoe UI, sans-serif' font-size="10" fill="#66707d" text-anchor="middle">1</text>
<text x="650.7" y="966" font-family='system-ui, -apple-system, Segoe UI, sans-serif' font-size="10" fill="#66707d" text-anchor="middle">2</text>
<text x="714.0" y="966" font-family='system-ui, -apple-system, Segoe UI, sans-serif' font-size="10" fill="#66707d" text-anchor="middle">3</text>
<polyline points="524.0,877.0 587.3,847.0 650.7,839.5 714.0,832.0" fill="none" stroke="#eb6834" stroke-width="2"/>
<circle cx="524.0" cy="877.0" r="3" fill="#eb6834"/>
<circle cx="587.3" cy="847.0" r="3" fill="#eb6834"/>
<circle cx="650.7" cy="839.5" r="3" fill="#eb6834"/>
<circle cx="714.0" cy="832.0" r="3" fill="#eb6834"/>
<polyline points="524.0,944.5 587.3,922.0 650.7,929.5 714.0,914.5" fill="none" stroke="#2a78d6" stroke-width="2"/>
<circle cx="524.0" cy="944.5" r="3" fill="#2a78d6"/>
<circle cx="587.3" cy="922.0" r="3" fill="#2a78d6"/>
<circle cx="650.7" cy="929.5" r="3" fill="#2a78d6"/>
<circle cx="714.0" cy="914.5" r="3" fill="#2a78d6"/>
<text x="719.0" y="836.0" font-family='system-ui, -apple-system, Segoe UI, sans-serif' font-size="10" fill="#eb6834">0.80</text>
<text x="719.0" y="918.5" font-family='system-ui, -apple-system, Segoe UI, sans-serif' font-size="10" fill="#2a78d6">0.25</text>
</svg>