<svg width="1200" height="700" viewBox="0 0 1200 700" fill="none" xmlns="http://www.w3.org/2000/svg">
  <rect width="1200" height="700" fill="#FBFAF7"/>

  <g stroke="#222222" stroke-width="2.2" stroke-linecap="round" stroke-linejoin="round">
    <path d="M210 356H355"/>
    <path d="M505 356H650"/>
    <path d="M800 356H945"/>
    <path d="M950 386C934 490 834 565 708 565C564 565 466 494 451 386"/>
  </g>

  <g fill="#222222">
    <path d="M348 348L363 356L348 364V348Z"/>
    <path d="M643 348L658 356L643 364V348Z"/>
    <path d="M938 348L953 356L938 364V348Z"/>
    <path d="M455 392L450 377L444 392H455Z"/>
  </g>

  <g>
    <rect x="90" y="275" width="140" height="162" rx="16" fill="#FFFFFF" stroke="#D5D0C7" stroke-width="2"/>
    <rect x="128" y="308" width="64" height="10" rx="5" fill="#BF5B49"/>
    <rect x="116" y="332" width="88" height="10" rx="5" fill="#D8DDE8"/>
    <rect x="116" y="352" width="72" height="10" rx="5" fill="#D8DDE8"/>
    <rect x="116" y="372" width="82" height="10" rx="5" fill="#D8DDE8"/>
    <text x="160" y="470" text-anchor="middle" fill="#222222" font-family="Karla, sans-serif" font-size="26" font-weight="700">Launch</text>
    <text x="160" y="502" text-anchor="middle" fill="#5D574F" font-family="Karla, sans-serif" font-size="19">bounded use case</text>
  </g>

  <g>
    <rect x="385" y="246" width="140" height="220" rx="16" fill="#FFFFFF" stroke="#D5D0C7" stroke-width="2"/>
    <circle cx="455" cy="304" r="34" fill="#E4F0EC" stroke="#2E6F62" stroke-width="2"/>
    <path d="M438 305L449 316L473 292" stroke="#2E6F62" stroke-width="5" stroke-linecap="round" stroke-linejoin="round"/>
    <rect x="421" y="360" width="68" height="10" rx="5" fill="#2E6F62"/>
    <rect x="408" y="384" width="94" height="10" rx="5" fill="#D8DDE8"/>
    <rect x="408" y="404" width="78" height="10" rx="5" fill="#D8DDE8"/>
    <text x="455" y="498" text-anchor="middle" fill="#222222" font-family="Karla, sans-serif" font-size="26" font-weight="700">Monitor</text>
    <text x="455" y="530" text-anchor="middle" fill="#5D574F" font-family="Karla, sans-serif" font-size="19">drift, errors, corrections</text>
  </g>

  <g>
    <rect x="680" y="254" width="140" height="204" rx="16" fill="#FFFFFF" stroke="#D5D0C7" stroke-width="2"/>
    <rect x="716" y="290" width="68" height="56" rx="12" fill="#EEF0FA" stroke="#4C5AA6" stroke-width="2"/>
    <path d="M732 324H768" stroke="#4C5AA6" stroke-width="4" stroke-linecap="round"/>
    <path d="M750 306V342" stroke="#4C5AA6" stroke-width="4" stroke-linecap="round"/>
    <rect x="703" y="376" width="94" height="10" rx="5" fill="#4C5AA6"/>
    <rect x="703" y="398" width="82" height="10" rx="5" fill="#D8DDE8"/>
    <text x="750" y="490" text-anchor="middle" fill="#222222" font-family="Karla, sans-serif" font-size="26" font-weight="700">Review</text>
    <text x="750" y="522" text-anchor="middle" fill="#5D574F" font-family="Karla, sans-serif" font-size="19">what failed and why</text>
  </g>

  <g>
    <rect x="975" y="232" width="140" height="248" rx="16" fill="#FFFFFF" stroke="#D5D0C7" stroke-width="2"/>
    <path d="M1018 371L1045 317L1072 371" stroke="#AD7B17" stroke-width="5" stroke-linecap="round" stroke-linejoin="round"/>
    <path d="M1045 317V392" stroke="#AD7B17" stroke-width="5" stroke-linecap="round"/>
    <rect x="1008" y="408" width="74" height="10" rx="5" fill="#AD7B17"/>
    <rect x="995" y="430" width="100" height="10" rx="5" fill="#D8DDE8"/>
    <rect x="995" y="450" width="86" height="10" rx="5" fill="#D8DDE8"/>
    <text x="1045" y="512" text-anchor="middle" fill="#222222" font-family="Karla, sans-serif" font-size="26" font-weight="700">Scale</text>
    <text x="1045" y="544" text-anchor="middle" fill="#5D574F" font-family="Karla, sans-serif" font-size="19">only after evidence</text>
  </g>

  <text x="600" y="112" text-anchor="middle" fill="#222222" font-family="Instrument Serif, Georgia, serif" font-size="52">Production trust is a loop, not a launch event</text>
  <text x="600" y="158" text-anchor="middle" fill="#6A645B" font-family="Karla, sans-serif" font-size="24">Launch narrowly. Monitor closely. Review failure. Scale only when the evidence supports it.</text>

  <text x="600" y="620" text-anchor="middle" fill="#6A645B" font-family="IBM Plex Mono, monospace" font-size="21" letter-spacing="0.08em">RELIABILITY • MONITORING • STAGED EXPANSION</text>
</svg>
