<svg width="1600" height="1000" viewBox="0 0 1600 1000" fill="none" xmlns="http://www.w3.org/2000/svg">
  <rect width="1600" height="1000" rx="40" fill="#F7F3EC"/>
  <rect x="56" y="56" width="1488" height="888" rx="34" fill="#FFFDF9" stroke="#D8D0C5"/>
  <rect x="118" y="118" width="220" height="44" rx="22" fill="#EEF2F4" stroke="#DDD5CA"/>
  <text x="228" y="146" fill="#2A313A" font-family="DM Sans, Arial, sans-serif" font-size="20" font-weight="700" text-anchor="middle">Healthcare AI</text>
  <text x="118" y="318" fill="#2A313A" font-family="DM Sans, Arial, sans-serif" font-size="74" font-weight="800">Smart Replies</text>
  <text x="118" y="380" fill="#68727E" font-family="DM Sans, Arial, sans-serif" font-size="28" font-weight="500">Short, safe suggestions inside provider messaging workflows</text>
  <path d="M720 268H900" stroke="#2A313A" stroke-width="5" stroke-linecap="round"/>
  <circle cx="720" cy="268" r="14" fill="#E0A928"/>
  <path d="M910 261H960" stroke="#2A313A" stroke-width="5" stroke-linecap="round"/><path d="M1150 261H1180" stroke="#2A313A" stroke-width="5" stroke-linecap="round"/><path d="M1275 302V338" stroke="#2A313A" stroke-width="5" stroke-linecap="round"/>
  
    <rect x="960" y="220" width="190" height="82" rx="30" fill="#2F5BFF"/>
    <text x="1055" y="271" fill="#FFFDF9" font-family="DM Sans, Arial, sans-serif" font-size="22" font-weight="700" text-anchor="middle">Context</text>
  
    <rect x="1180" y="220" width="190" height="82" rx="30" fill="#7C5CFF"/>
    <text x="1275" y="271" fill="#FFFDF9" font-family="DM Sans, Arial, sans-serif" font-size="22" font-weight="700" text-anchor="middle">Prompt</text>
  
    <rect x="1070" y="338" width="190" height="82" rx="30" fill="#18B7A0"/>
    <text x="1165" y="389" fill="#FFFDF9" font-family="DM Sans, Arial, sans-serif" font-size="22" font-weight="700" text-anchor="middle">Safety</text>
  
  
      <rect x="730" y="188" width="150" height="160" rx="28" fill="#F4F7FB" stroke="#D8D0C5"/>
      <rect x="770" y="232" width="76" height="16" rx="8" fill="#E0A928"/>
      <rect x="770" y="270" width="92" height="14" rx="7" fill="#DCE4ED"/>
      <rect x="770" y="300" width="68" height="14" rx="7" fill="#DCE4ED"/>
      <rect x="950" y="536" width="390" height="188" rx="32" fill="#FFFEFB" stroke="#D8D0C5"/>
      <rect x="1000" y="584" width="238" height="18" rx="9" fill="#DCE4ED"/>
      <rect x="1000" y="622" width="202" height="18" rx="9" fill="#DCE4ED"/>
      <rect x="1000" y="660" width="140" height="18" rx="9" fill="#83C67A" opacity="0.9"/>
      <circle cx="1274" cy="627" r="18" fill="#18B7A0"/>
    
</svg>