<svg width="1600" height="1000" viewBox="0 0 1600 1000" fill="none" xmlns="http://www.w3.org/2000/svg">
  <rect width="1600" height="1000" rx="40" fill="#F7F3EC"/>
  <rect x="56" y="56" width="1488" height="888" rx="34" fill="#FFFDF9" stroke="#D8D0C5"/>
  <rect x="118" y="118" width="220" height="44" rx="22" fill="#EEF2F4" stroke="#DDD5CA"/>
  <text x="228" y="146" fill="#2A313A" font-family="DM Sans, Arial, sans-serif" font-size="20" font-weight="700" text-anchor="middle">Sequence Research</text>
  <text x="118" y="318" fill="#2A313A" font-family="DM Sans, Arial, sans-serif" font-size="74" font-weight="800">Dynamic ISL</text>
  <text x="118" y="380" fill="#68727E" font-family="DM Sans, Arial, sans-serif" font-size="28" font-weight="500">Sequence modeling for motion-based sign recognition</text>
  <path d="M720 268H900" stroke="#2A313A" stroke-width="5" stroke-linecap="round"/>
  <circle cx="720" cy="268" r="14" fill="#E0A928"/>
  <path d="M906 274H954" stroke="#2A313A" stroke-width="5" stroke-linecap="round"/><path d="M1114 274H1152" stroke="#2A313A" stroke-width="5" stroke-linecap="round"/><path d="M1232 318V356" stroke="#2A313A" stroke-width="5" stroke-linecap="round"/>
  
    <rect x="954" y="230" width="160" height="88" rx="30" fill="#2F5BFF"/>
    <text x="1034" y="281" fill="#FFFDF9" font-family="DM Sans, Arial, sans-serif" font-size="22" font-weight="700" text-anchor="middle">Frames</text>
  
    <rect x="1152" y="230" width="160" height="88" rx="30" fill="#18B7A0"/>
    <text x="1232" y="281" fill="#FFFDF9" font-family="DM Sans, Arial, sans-serif" font-size="22" font-weight="700" text-anchor="middle">Motion</text>
  
    <rect x="1054" y="356" width="160" height="88" rx="30" fill="#7C5CFF"/>
    <text x="1134" y="407" fill="#FFFDF9" font-family="DM Sans, Arial, sans-serif" font-size="22" font-weight="700" text-anchor="middle">Sequence</text>
  
  
      <circle cx="770" cy="360" r="32" fill="#F26E5A" opacity="0.9"/>
      <circle cx="844" cy="290" r="32" fill="#E0A928" opacity="0.9"/>
      <circle cx="920" cy="360" r="32" fill="#83C67A" opacity="0.9"/>
      <path d="M792 338L822 312" stroke="#2A313A" stroke-width="5" stroke-linecap="round"/>
      <path d="M866 312L898 338" stroke="#2A313A" stroke-width="5" stroke-linecap="round"/>
      <rect x="960" y="548" width="360" height="152" rx="32" fill="#FFFEFB" stroke="#D8D0C5"/>
      <rect x="1012" y="600" width="188" height="18" rx="9" fill="#DCE4ED"/>
      <rect x="1012" y="640" width="144" height="18" rx="9" fill="#DCE4ED"/>
    
</svg>