<svg width="1600" height="1000" viewBox="0 0 1600 1000" fill="none" xmlns="http://www.w3.org/2000/svg">
  <rect width="1600" height="1000" rx="40" fill="#F7F3EC"/>
  <rect x="56" y="56" width="1488" height="888" rx="34" fill="#FFFDF9" stroke="#D8D0C5"/>
  <path d="M680 320H904" stroke="#2A313A" stroke-width="5" stroke-linecap="round"/>
  <circle cx="680" cy="320" r="14" fill="#E0A928"/>
  <path d="M904 266H936" stroke="#2A313A" stroke-width="5" stroke-linecap="round"/>
  <path d="M1096 266H1136" stroke="#2A313A" stroke-width="5" stroke-linecap="round"/>
  <path d="M1216 310V356" stroke="#2A313A" stroke-width="5" stroke-linecap="round"/>
  <rect x="936" y="222" width="160" height="88" rx="30" fill="#2F5BFF"/>
  <rect x="1136" y="222" width="160" height="88" rx="30" fill="#7C5CFF"/>
  <rect x="1036" y="356" width="160" height="88" rx="30" fill="#F26E5A"/>
  <rect x="734" y="220" width="118" height="302" rx="22" fill="#FFFEFB" stroke="#D8D0C5"/>
  <rect x="868" y="220" width="118" height="302" rx="22" fill="#FFFEFB" stroke="#D8D0C5"/>
  <path d="M926 244V502" stroke="#E0A928" stroke-width="6" stroke-dasharray="12 14" stroke-linecap="round"/>
  <rect x="950" y="546" width="360" height="146" rx="32" fill="#FFFEFB" stroke="#D8D0C5"/>
  <rect x="1002" y="596" width="210" height="18" rx="9" fill="#DCE4ED"/>
  <circle cx="1240" cy="620" r="16" fill="#F26E5A"/>
  <path d="M1240 607V625" stroke="#FFFDF9" stroke-width="5" stroke-linecap="round"/>
  <circle cx="1240" cy="633" r="3.5" fill="#FFFDF9"/>
</svg>
