<svg width="1600" height="1000" viewBox="0 0 1600 1000" fill="none" xmlns="http://www.w3.org/2000/svg">
  <rect width="1600" height="1000" rx="40" fill="#F7F3EC"/>
  <rect x="56" y="56" width="1488" height="888" rx="34" fill="#FFFDF9" stroke="#D8D0C5"/>
  <rect x="118" y="118" width="220" height="44" rx="22" fill="#EEF2F4" stroke="#DDD5CA"/>
  <text x="228" y="146" fill="#2A313A" font-family="DM Sans, Arial, sans-serif" font-size="20" font-weight="700" text-anchor="middle">Production AI</text>
  <text x="118" y="318" fill="#2A313A" font-family="DM Sans, Arial, sans-serif" font-size="74" font-weight="800">Eval Pipeline</text>
  <text x="118" y="380" fill="#68727E" font-family="DM Sans, Arial, sans-serif" font-size="28" font-weight="500">Distributed orchestration for large-scale scoring and reporting</text>
  <path d="M720 268H900" stroke="#2A313A" stroke-width="5" stroke-linecap="round"/>
  <circle cx="720" cy="268" r="14" fill="#E0A928"/>
  <path d="M870 266H922" stroke="#2A313A" stroke-width="5" stroke-linecap="round"/><path d="M1074 266H1110" stroke="#2A313A" stroke-width="5" stroke-linecap="round"/><path d="M1262 266H1298" stroke="#2A313A" stroke-width="5" stroke-linecap="round"/>
  
    <rect x="922" y="222" width="152" height="88" rx="30" fill="#E0A928"/>
    <text x="998" y="273" fill="#FFFDF9" font-family="DM Sans, Arial, sans-serif" font-size="22" font-weight="700" text-anchor="middle">Ingest</text>
  
    <rect x="1110" y="222" width="152" height="88" rx="30" fill="#2F5BFF"/>
    <text x="1186" y="273" fill="#FFFDF9" font-family="DM Sans, Arial, sans-serif" font-size="22" font-weight="700" text-anchor="middle">Compute</text>
  
    <rect x="1298" y="222" width="152" height="88" rx="30" fill="#18B7A0"/>
    <text x="1374" y="273" fill="#FFFDF9" font-family="DM Sans, Arial, sans-serif" font-size="22" font-weight="700" text-anchor="middle">Report</text>
  
  
      <rect x="760" y="198" width="72" height="138" rx="22" fill="#F4F7FB" stroke="#D8D0C5"/>
      <rect x="962" y="366" width="488" height="238" rx="34" fill="#FFFEFB" stroke="#D8D0C5"/>
      <rect x="1010" y="420" width="100" height="112" rx="24" fill="#E8F4F1" stroke="#C9DED8"/>
      <rect x="1150" y="420" width="100" height="112" rx="24" fill="#EEF1FB" stroke="#D5DAEA"/>
      <rect x="1290" y="420" width="100" height="112" rx="24" fill="#FFF3E2" stroke="#E8D4B5"/>
      <path d="M1110 476H1150" stroke="#2A313A" stroke-width="5" stroke-linecap="round"/>
      <path d="M1250 476H1290" stroke="#2A313A" stroke-width="5" stroke-linecap="round"/>
      <rect x="1118" y="642" width="174" height="18" rx="9" fill="#DCE4ED"/>
    
</svg>