<svg width="1600" height="1000" viewBox="0 0 1600 1000" fill="none" xmlns="http://www.w3.org/2000/svg">
  <rect width="1600" height="1000" rx="40" fill="#F7F3EC"/>
  <rect x="56" y="56" width="1488" height="888" rx="34" fill="#FFFDF9" stroke="#D8D0C5"/>
  <path d="M680 332H938" stroke="#2A313A" stroke-width="5" stroke-linecap="round"/>
  <circle cx="680" cy="332" r="14" fill="#E0A928"/>
  <path d="M938 289H1000" stroke="#2A313A" stroke-width="5" stroke-linecap="round"/>
  <path d="M938 393H1000" stroke="#2A313A" stroke-width="5" stroke-linecap="round"/>
  <path d="M938 497H1000" stroke="#2A313A" stroke-width="5" stroke-linecap="round"/>
  <rect x="1000" y="226" width="268" height="74" rx="30" fill="#2F5BFF"/>
  <rect x="1000" y="330" width="212" height="74" rx="30" fill="#18B7A0"/>
  <rect x="1000" y="434" width="238" height="74" rx="30" fill="#F26E5A"/>
  <rect x="730" y="246" width="190" height="300" rx="30" fill="#F4F7FB" stroke="#D8D0C5"/>
  <rect x="778" y="294" width="96" height="16" rx="8" fill="#DCE4ED"/>
  <rect x="778" y="340" width="110" height="16" rx="8" fill="#E0A928"/>
  <rect x="778" y="386" width="128" height="16" rx="8" fill="#DCE4ED"/>
  <rect x="778" y="432" width="104" height="16" rx="8" fill="#DCE4ED"/>
  <rect x="972" y="598" width="292" height="98" rx="28" fill="#FFFEFB" stroke="#D8D0C5"/>
  <circle cx="1042" cy="648" r="18" fill="#83C67A"/>
  <rect x="1080" y="638" width="132" height="16" rx="8" fill="#DCE4ED"/>
</svg>
