<svg width="1600" height="1000" viewBox="0 0 1600 1000" fill="none" xmlns="http://www.w3.org/2000/svg">
  <rect width="1600" height="1000" rx="40" fill="#F7F3EC"/>
  <rect x="56" y="56" width="1488" height="888" rx="34" fill="#FFFDF9" stroke="#D8D0C5"/>
  <path d="M680 320H922" stroke="#2A313A" stroke-width="5" stroke-linecap="round"/>
  <circle cx="680" cy="320" r="14" fill="#E0A928"/>
  <path d="M922 267H954" stroke="#2A313A" stroke-width="5" stroke-linecap="round"/>
  <path d="M1124 267H1158" stroke="#2A313A" stroke-width="5" stroke-linecap="round"/>
  <path d="M1244 310V350" stroke="#2A313A" stroke-width="5" stroke-linecap="round"/>
  <rect x="954" y="224" width="170" height="86" rx="30" fill="#2F5BFF"/>
  <rect x="1158" y="224" width="170" height="86" rx="30" fill="#18B7A0"/>
  <rect x="1056" y="350" width="170" height="86" rx="30" fill="#E0A928"/>
  <rect x="726" y="226" width="148" height="264" rx="24" fill="#FFFEFB" stroke="#D8D0C5"/>
  <rect x="772" y="276" width="88" height="14" rx="7" fill="#DCE4ED"/>
  <rect x="772" y="314" width="110" height="14" rx="7" fill="#DCE4ED"/>
  <rect x="772" y="352" width="92" height="14" rx="7" fill="#DCE4ED"/>
  <rect x="950" y="548" width="380" height="160" rx="32" fill="#FFFEFB" stroke="#D8D0C5"/>
  <rect x="1000" y="598" width="170" height="20" rx="10" fill="#18B7A0" opacity="0.22"/>
  <rect x="1188" y="598" width="102" height="20" rx="10" fill="#2F5BFF" opacity="0.22"/>
  <rect x="1000" y="640" width="138" height="20" rx="10" fill="#83C67A" opacity="0.24"/>
  <rect x="1152" y="640" width="156" height="20" rx="10" fill="#E0A928" opacity="0.22"/>
</svg>
